<svg width="608" height="608" viewBox="0 0 608 608" xmlns="http://www.w3.org/2000/svg">
<polyline fill="none" opacity="1" stroke="#000000" stroke-width="8" points="40,4 608,4 "/>
<polyline fill="none" opacity="1" stroke="#000000" stroke-width="8" points="40,44 88,44 "/>
<polyline fill="none" opacity="1" stroke="#000000" stroke-width="8" points="320,44 368,44 "/>
<polyline fill="none" opacity="1" stroke="#000000" stroke-width="8" points="400,44 448,44 "/>
<polyline fill="none" opacity="1" stroke="#000000" stroke-width="8" points="480,44 528,44 "/>
<polyline fill="none" opacity="1" stroke="#000000" stroke-width="8" points="560,44 608,44 "/>
<polyline fill="none" opacity="1" stroke="#000000" stroke-width="8" points="40,84 128,84 "/>
<polyline fill="none" opacity="1" stroke="#000000" stroke-width="8" points="160,84 208,84 "/>
<polyline fill="none" opacity="1" stroke="#000000" stroke-width="8" points="280,84 408,84 "/>
<polyline fill="none" opacity="1" stroke="#000000" stroke-width="8" points="520,84 608,84 "/>
<polyline fill="none" opacity="1" stroke="#000000" stroke-width="8" points="40,124 88,124 "/>
<polyline fill="none" opacity="1" stroke="#000000" stroke-width="8" points="200,124 328,124 "/>
<polyline fill="none" opacity="1" stroke="#000000" stroke-width="8" points="400,124 528,124 "/>
<polyline fill="none" opacity="1" stroke="#000000" stroke-width="8" points="40,164 128,164 "/>
<polyline fill="none" opacity="1" stroke="#000000" stroke-width="8" points="200,164 288,164 "/>
<polyline fill="none" opacity="1" stroke="#000000" stroke-width="8" points="360,164 408,164 "/>
<polyline fill="none" opacity="1" stroke="#000000" stroke-width="8" points="480,164 528,164 "/>
<polyline fill="none" opacity="1" stroke="#000000" stroke-width="8" points="80,204 248,204 "/>
<polyline fill="none" opacity="1" stroke="#000000" stroke-width="8" points="280,204 328,204 "/>
<polyline fill="none" opacity="1" stroke="#000000" stroke-width="8" points="400,204 448,204 "/>
<polyline fill="none" opacity="1" stroke="#000000" stroke-width="8" points="520,204 608,204 "/>
<polyline fill="none" opacity="1" stroke="#000000" stroke-width="8" points="80,244 208,244 "/>
<polyline fill="none" opacity="1" stroke="#000000" stroke-width="8" points="240,244 288,244 "/>
<polyline fill="none" opacity="1" stroke="#000000" stroke-width="8" points="320,244 368,244 "/>
<polyline fill="none" opacity="1" stroke="#000000" stroke-width="8" points="400,244 528,244 "/>
<polyline fill="none" opacity="1" stroke="#000000" stroke-width="8" points="0,284 128,284 "/>
<polyline fill="none" opacity="1" stroke="#000000" stroke-width="8" points="160,284 328,284 "/>
<polyline fill="none" opacity="1" stroke="#000000" stroke-width="8" points="360,284 488,284 "/>
<polyline fill="none" opacity="1" stroke="#000000" stroke-width="8" points="80,324 128,324 "/>
<polyline fill="none" opacity="1" stroke="#000000" stroke-width="8" points="160,324 208,324 "/>
<polyline fill="none" opacity="1" stroke="#000000" stroke-width="8" points="240,324 328,324 "/>
<polyline fill="none" opacity="1" stroke="#000000" stroke-width="8" points="360,324 408,324 "/>
<polyline fill="none" opacity="1" stroke="#000000" stroke-width="8" points="440,324 488,324 "/>
<polyline fill="none" opacity="1" stroke="#000000" stroke-width="8" points="40,364 208,364 "/>
<polyline fill="none" opacity="1" stroke="#000000" stroke-width="8" points="280,364 328,364 "/>
<polyline fill="none" opacity="1" stroke="#000000" stroke-width="8" points="360,364 448,364 "/>
<polyline fill="none" opacity="1" stroke="#000000" stroke-width="8" points="480,364 528,364 "/>
<polyline fill="none" opacity="1" stroke="#000000" stroke-width="8" points="80,404 128,404 "/>
<polyline fill="none" opacity="1" stroke="#000000" stroke-width="8" points="200,404 248,404 "/>
<polyline fill="none" opacity="1" stroke="#000000" stroke-width="8" points="320,404 368,404 "/>
<polyline fill="none" opacity="1" stroke="#000000" stroke-width="8" points="400,404 448,404 "/>
<polyline fill="none" opacity="1" stroke="#000000" stroke-width="8" points="560,404 608,404 "/>
<polyline fill="none" opacity="1" stroke="#000000" stroke-width="8" points="0,444 88,444 "/>
<polyline fill="none" opacity="1" stroke="#000000" stroke-width="8" points="120,444 248,444 "/>
<polyline fill="none" opacity="1" stroke="#000000" stroke-width="8" points="280,444 608,444 "/>
<polyline fill="none" opacity="1" stroke="#000000" stroke-width="8" points="40,484 88,484 "/>
<polyline fill="none" opacity="1" stroke="#000000" stroke-width="8" points="280,484 328,484 "/>
<polyline fill="none" opacity="1" stroke="#000000" stroke-width="8" points="360,484 448,484 "/>
<polyline fill="none" opacity="1" stroke="#000000" stroke-width="8" points="0,524 48,524 "/>
<polyline fill="none" opacity="1" stroke="#000000" stroke-width="8" points="320,524 368,524 "/>
<polyline fill="none" opacity="1" stroke="#000000" stroke-width="8" points="400,524 448,524 "/>
<polyline fill="none" opacity="1" stroke="#000000" stroke-width="8" points="480,524 568,524 "/>
<polyline fill="none" opacity="1" stroke="#000000" stroke-width="8" points="0,564 88,564 "/>
<polyline fill="none" opacity="1" stroke="#000000" stroke-width="8" points="120,564 168,564 "/>
<polyline fill="none" opacity="1" stroke="#000000" stroke-width="8" points="280,564 368,564 "/>
<polyline fill="none" opacity="1" stroke="#000000" stroke-width="8" points="560,564 608,564 "/>
<polyline fill="none" opacity="1" stroke="#000000" stroke-width="8" points="0,604 568,604 "/>
<polyline fill="none" opacity="1" stroke="#000000" stroke-width="8" points="4,0 4,608 "/>
<polyline fill="none" opacity="1" stroke="#000000" stroke-width="8" points="44,0 44,48 "/>
<polyline fill="none" opacity="1" stroke="#000000" stroke-width="8" points="44,80 44,128 "/>
<polyline fill="none" opacity="1" stroke="#000000" stroke-width="8" points="44,160 44,208 "/>
<polyline fill="none" opacity="1" stroke="#000000" stroke-width="8" points="44,240 44,408 "/>
<polyline fill="none" opacity="1" stroke="#000000" stroke-width="8" points="44,440 44,488 "/>
<polyline fill="none" opacity="1" stroke="#000000" stroke-width="8" points="84,40 84,88 "/>
<polyline fill="none" opacity="1" stroke="#000000" stroke-width="8" points="84,160 84,208 "/>
<polyline fill="none" opacity="1" stroke="#000000" stroke-width="8" points="84,360 84,408 "/>
<polyline fill="none" opacity="1" stroke="#000000" stroke-width="8" points="84,480 84,528 "/>
<polyline fill="none" opacity="1" stroke="#000000" stroke-width="8" points="124,0 124,48 "/>
<polyline fill="none" opacity="1" stroke="#000000" stroke-width="8" points="124,80 124,128 "/>
<polyline fill="none" opacity="1" stroke="#000000" stroke-width="8" points="124,240 124,288 "/>
<polyline fill="none" opacity="1" stroke="#000000" stroke-width="8" points="124,320 124,368 "/>
<polyline fill="none" opacity="1" stroke="#000000" stroke-width="8" points="124,440 124,488 "/>
<polyline fill="none" opacity="1" stroke="#000000" stroke-width="8" points="124,520 124,568 "/>
<polyline fill="none" opacity="1" stroke="#000000" stroke-width="8" points="164,40 164,168 "/>
<polyline fill="none" opacity="1" stroke="#000000" stroke-width="8" points="164,280 164,328 "/>
<polyline fill="none" opacity="1" stroke="#000000" stroke-width="8" points="164,360 164,408 "/>
<polyline fill="none" opacity="1" stroke="#000000" stroke-width="8" points="164,440 164,488 "/>
<polyline fill="none" opacity="1" stroke="#000000" stroke-width="8" points="164,520 164,608 "/>
<polyline fill="none" opacity="1" stroke="#000000" stroke-width="8" points="204,0 204,128 "/>
<polyline fill="none" opacity="1" stroke="#000000" stroke-width="8" points="204,160 204,208 "/>
<polyline fill="none" opacity="1" stroke="#000000" stroke-width="8" points="204,440 204,608 "/>
<polyline fill="none" opacity="1" stroke="#000000" stroke-width="8" points="244,40 244,128 "/>
<polyline fill="none" opacity="1" stroke="#000000" stroke-width="8" points="244,320 244,368 "/>
<polyline fill="none" opacity="1" stroke="#000000" stroke-width="8" points="244,400 244,448 "/>
<polyline fill="none" opacity="1" stroke="#000000" stroke-width="8" points="244,480 244,608 "/>
<polyline fill="none" opacity="1" stroke="#000000" stroke-width="8" points="284,0 284,48 "/>
<polyline fill="none" opacity="1" stroke="#000000" stroke-width="8" points="284,160 284,288 "/>
<polyline fill="none" opacity="1" stroke="#000000" stroke-width="8" points="284,320 284,408 "/>
<polyline fill="none" opacity="1" stroke="#000000" stroke-width="8" points="284,480 284,528 "/>
<polyline fill="none" opacity="1" stroke="#000000" stroke-width="8" points="324,40 324,208 "/>
<polyline fill="none" opacity="1" stroke="#000000" stroke-width="8" points="324,360 324,408 "/>
<polyline fill="none" opacity="1" stroke="#000000" stroke-width="8" points="324,440 324,528 "/>
<polyline fill="none" opacity="1" stroke="#000000" stroke-width="8" points="324,560 324,608 "/>
<polyline fill="none" opacity="1" stroke="#000000" stroke-width="8" points="364,80 364,248 "/>
<polyline fill="none" opacity="1" stroke="#000000" stroke-width="8" points="364,280 364,328 "/>
<polyline fill="none" opacity="1" stroke="#000000" stroke-width="8" points="364,400 364,448 "/>
<polyline fill="none" opacity="1" stroke="#000000" stroke-width="8" points="404,120 404,168 "/>
<polyline fill="none" opacity="1" stroke="#000000" stroke-width="8" points="404,200 404,248 "/>
<polyline fill="none" opacity="1" stroke="#000000" stroke-width="8" points="404,480 404,568 "/>
<polyline fill="none" opacity="1" stroke="#000000" stroke-width="8" points="444,0 444,88 "/>
<polyline fill="none" opacity="1" stroke="#000000" stroke-width="8" points="444,120 444,168 "/>
<polyline fill="none" opacity="1" stroke="#000000" stroke-width="8" points="444,240 444,288 "/>
<polyline fill="none" opacity="1" stroke="#000000" stroke-width="8" points="444,320 444,488 "/>
<polyline fill="none" opacity="1" stroke="#000000" stroke-width="8" points="444,560 444,608 "/>
<polyline fill="none" opacity="1" stroke="#000000" stroke-width="8" points="484,0 484,48 "/>
<polyline fill="none" opacity="1" stroke="#000000" stroke-width="8" points="484,80 484,208 "/>
<polyline fill="none" opacity="1" stroke="#000000" stroke-width="8" points="484,280 484,328 "/>
<polyline fill="none" opacity="1" stroke="#000000" stroke-width="8" points="484,360 484,448 "/>
<polyline fill="none" opacity="1" stroke="#000000" stroke-width="8" points="484,480 484,528 "/>
<polyline fill="none" opacity="1" stroke="#000000" stroke-width="8" points="484,560 484,608 "/>
<polyline fill="none" opacity="1" stroke="#000000" stroke-width="8" points="524,240 524,328 "/>
<polyline fill="none" opacity="1" stroke="#000000" stroke-width="8" points="524,360 524,408 "/>
<polyline fill="none" opacity="1" stroke="#000000" stroke-width="8" points="524,480 524,528 "/>
<polyline fill="none" opacity="1" stroke="#000000" stroke-width="8" points="524,560 524,608 "/>
<polyline fill="none" opacity="1" stroke="#000000" stroke-width="8" points="564,80 564,128 "/>
<polyline fill="none" opacity="1" stroke="#000000" stroke-width="8" points="564,160 564,288 "/>
<polyline fill="none" opacity="1" stroke="#000000" stroke-width="8" points="564,320 564,408 "/>
<polyline fill="none" opacity="1" stroke="#000000" stroke-width="8" points="564,440 564,488 "/>
<polyline fill="none" opacity="1" stroke="#000000" stroke-width="8" points="564,520 564,568 "/>
<polyline fill="none" opacity="1" stroke="#000000" stroke-width="8" points="604,0 604,608 "/>
</svg>
